<svg width="48" height="24" viewBox="0 0 48 24" fill="none" xmlns="http://www.w3.org/2000/svg">
<rect width="48" height="24" fill="#F2F2F4"/>
<g clip-path="url(#clip0_4101_43317)">
<path d="M14.7177 7.80156C14.3895 8.18196 13.8645 8.482 13.3394 8.43913C13.2738 7.92479 13.5308 7.3783 13.8317 7.04076C14.1598 6.64964 14.7341 6.37104 15.199 6.34961C15.2537 6.88538 15.0404 7.41045 14.7177 7.80156ZM15.1935 8.54093C14.4333 8.49807 13.7824 8.96419 13.4214 8.96419C13.055 8.96419 12.5026 8.56236 11.901 8.57308C11.1188 8.58379 10.3914 9.01777 9.99215 9.70892C9.17174 11.0912 9.77884 13.1379 10.5719 14.263C10.9602 14.8202 11.4251 15.431 12.0377 15.4096C12.6175 15.3881 12.8472 15.0399 13.5472 15.0399C14.2528 15.0399 14.4552 15.4096 15.0677 15.3989C15.7022 15.3881 16.1014 14.8417 16.4898 14.2844C16.9328 13.6522 17.1133 13.0361 17.1242 13.0039C17.1133 12.9932 15.8991 12.5378 15.8881 11.1662C15.8772 10.0197 16.8453 9.47318 16.889 9.44103C16.3421 8.64809 15.4889 8.56236 15.1935 8.54093ZM19.5854 6.98718V15.3399H20.909V12.4842H22.7413C24.4149 12.4842 25.5908 11.3591 25.5908 9.73035C25.5908 8.1016 24.4368 6.98718 22.785 6.98718H19.5854ZM20.909 8.08016H22.435C23.5836 8.08016 24.2399 8.68023 24.2399 9.73571C24.2399 10.7912 23.5836 11.3966 22.4295 11.3966H20.909V8.08016ZM28.0083 15.4042C28.8396 15.4042 29.6108 14.9917 29.9608 14.338H29.9882V15.3399H31.2133V11.1823C31.2133 9.97681 30.2288 9.19994 28.7138 9.19994C27.3082 9.19994 26.269 9.98753 26.2307 11.0698H27.4231C27.5215 10.5554 28.0083 10.2179 28.6755 10.2179C29.485 10.2179 29.939 10.5876 29.939 11.268V11.7288L28.2872 11.8252C26.7503 11.9163 25.919 12.5325 25.919 13.604C25.919 14.6863 26.7777 15.4042 28.0083 15.4042ZM28.3638 14.413C27.6582 14.413 27.2097 14.0809 27.2097 13.5719C27.2097 13.0468 27.6418 12.7414 28.4677 12.6932L29.939 12.6021V13.0736C29.939 13.8558 29.2608 14.413 28.3638 14.413ZM32.8487 17.6116C34.1394 17.6116 34.7465 17.1294 35.2771 15.6667L37.6016 9.2803H36.2561L34.6973 14.2148H34.67L33.1112 9.2803H31.7275L33.9699 15.3614L33.8496 15.731C33.6472 16.3579 33.319 16.599 32.7338 16.599C32.6299 16.599 32.4275 16.5883 32.3455 16.5776V17.5795C32.4221 17.6009 32.7502 17.6116 32.8487 17.6116Z" fill="black"/>
</g>
<defs>
<clipPath id="clip0_4101_43317">
<rect width="28" height="12" fill="white" transform="translate(9.60156 6)"/>
</clipPath>
</defs>
</svg>
