<svg width="48" height="24" viewBox="0 0 48 24" fill="none" xmlns="http://www.w3.org/2000/svg">
<rect width="48" height="24" fill="#F2F2F4"/>
<g clip-path="url(#clip0_4101_43314)">
<path fill-rule="evenodd" clip-rule="evenodd" d="M12.5442 11.8759L11.3014 8.93335L10.0657 11.8759H12.5442ZM24.4644 15.061L24.4576 9.28L21.8246 15.061H20.2304L17.5906 9.27487V15.061H13.8974L13.1997 13.4146H9.41911L8.7143 15.061H6.74219L9.99376 7.67969H12.6915L15.7797 14.6682V7.67969H18.7433L21.1196 12.687L23.3025 7.67969H26.3257V15.061H24.4644ZM29.2155 13.5506V12.0816H33.2019V10.5753H29.2155V9.23301H33.7678L35.7539 11.3846L33.6799 13.5506H29.2155ZM41.518 15.0892H39.1586L36.9227 12.6451L34.5991 15.0892H27.4067V7.70617H34.7098L36.9438 10.1262L39.2534 7.70617H41.6255L38.0968 11.3977L41.518 15.0892Z" fill="#002663"/>
</g>
<defs>
<clipPath id="clip0_4101_43314">
<rect width="36.4" height="8.4" fill="white" transform="translate(6 7.19922)"/>
</clipPath>
</defs>
</svg>
