<svg width="48" height="24" viewBox="0 0 48 24" fill="none" xmlns="http://www.w3.org/2000/svg">
<rect width="48" height="24" fill="#F2F2F4"/>
<g clip-path="url(#clip0_4101_43321)">
<path d="M18.72 18.7154C22.4314 18.7154 25.44 15.7067 25.44 11.9954C25.44 8.28404 22.4314 5.27539 18.72 5.27539C15.0086 5.27539 12 8.28404 12 11.9954C12 15.7067 15.0086 18.7154 18.72 18.7154Z" fill="#EA001B"/>
<path d="M28.3216 18.7154C32.0329 18.7154 35.0416 15.7067 35.0416 11.9954C35.0416 8.28404 32.0329 5.27539 28.3216 5.27539C24.6102 5.27539 21.6016 8.28404 21.6016 11.9954C21.6016 15.7067 24.6102 18.7154 28.3216 18.7154Z" fill="#FFA200" fill-opacity="0.8"/>
</g>
<defs>
<clipPath id="clip0_4101_43321">
<rect width="23.04" height="14.4" fill="white" transform="translate(12 4.80078)"/>
</clipPath>
</defs>
</svg>
