<svg width="48" height="24" viewBox="0 0 48 24" fill="none" xmlns="http://www.w3.org/2000/svg">
<rect width="48" height="24" fill="#F2F2F4"/>
<path d="M28.2543 9.49688L21.3531 17.0273H18.8218C18.646 17.0273 18.5054 16.8516 18.5406 16.6758L20.2281 5.98828C20.2632 5.74219 20.4742 5.56641 20.7203 5.56641H25.0093C27.9625 5.67188 28.771 7.18359 28.2437 9.50391L28.2543 9.49688Z" fill="#002C8A"/>
<path d="M28.3648 8.80078C29.4195 9.36328 29.6656 10.418 29.314 11.8242C28.857 13.8984 27.4859 14.7773 25.482 14.8125L24.9195 14.8477C24.7085 14.8477 24.5679 14.9883 24.5328 15.1992L24.0757 17.9766C24.0406 18.2227 23.8296 18.3984 23.5835 18.3984H21.4742C21.2984 18.3984 21.1578 18.2227 21.1929 18.0469L21.9664 13.0195C22.0015 12.8438 28.3648 8.80078 28.3648 8.80078Z" fill="#009BE1"/>
<path d="M21.9258 13.2656L22.6289 8.80078C22.652 8.69504 22.7092 8.59985 22.7919 8.52994C22.8745 8.46003 22.9778 8.41931 23.0859 8.41406H26.4609C27.2695 8.41406 27.8672 8.55469 28.3594 8.80078C28.1836 10.3477 27.4453 12.8438 23.8594 12.9141H22.3125C22.1367 12.9141 21.9609 13.0547 21.9258 13.2656Z" fill="#001F6B"/>
</svg>
