<svg width="48" height="24" viewBox="0 0 48 24" fill="none" xmlns="http://www.w3.org/2000/svg">
<rect width="48" height="24" fill="#F2F2F4"/>
<g clip-path="url(#clip0_4101_43338)">
<path d="M16.8869 5.00012H23.1152C23.9847 5.00012 24.5254 5.6818 24.3226 6.52089L21.4228 18.4966C21.2182 19.3328 20.3477 20.0151 19.4777 20.0151H13.2499C12.3817 20.0151 11.8397 19.3328 12.0425 18.4966L14.9435 6.52089C15.1463 5.6818 16.0164 5.00012 16.8869 5.00012Z" fill="#E21836"/>
<path d="M22.5974 5.00012H29.7599C30.6292 5.00012 30.2372 5.6818 30.0327 6.52089L27.1334 18.4966C26.93 19.3328 26.9934 20.0151 26.1223 20.0151H18.9598C18.0887 20.0151 17.5497 19.3328 17.7543 18.4966L20.6535 6.52089C20.8593 5.6818 21.7275 5.00012 22.5974 5.00012Z" fill="#00447C"/>
<path d="M29.476 5.00012H35.7044C36.575 5.00012 37.1158 5.6818 36.9113 6.52089L34.012 18.4966C33.8074 19.3328 32.9363 20.0151 32.0658 20.0151H25.8403C24.9692 20.0151 24.4289 19.3328 24.6329 18.4966L27.5327 6.52089C27.7355 5.6818 28.6049 5.00012 29.476 5.00012Z" fill="#007B84"/>
<path d="M18.5145 8.83767C17.874 8.84395 17.6849 8.83767 17.6244 8.82395C17.6012 8.93011 17.169 10.8479 17.1678 10.8495C17.0747 11.2376 17.007 11.5141 16.777 11.6927C16.6465 11.7966 16.494 11.8466 16.3173 11.8466C16.0333 11.8466 15.8678 11.711 15.84 11.4537L15.8347 11.3653C15.8347 11.3653 15.9213 10.8456 15.9213 10.8427C15.9213 10.8427 16.3749 9.09498 16.4561 8.86396C16.4603 8.85082 16.4616 8.84395 16.4626 8.83767C15.5797 8.84512 15.4232 8.83767 15.4124 8.82395C15.4065 8.84278 15.3846 8.95114 15.3846 8.95114L14.9214 10.921L14.8817 11.088L14.8047 11.6345C14.8047 11.7966 14.8378 11.9289 14.9037 12.0407C15.1147 12.3954 15.7166 12.4486 16.0571 12.4486C16.4959 12.4486 16.9074 12.3589 17.1855 12.1952C17.6683 11.9208 17.7946 11.4919 17.9073 11.1108L17.9595 10.9153C17.9595 10.9153 18.4268 9.10009 18.5062 8.86396C18.5092 8.85082 18.5104 8.84395 18.5145 8.83767ZM20.1044 10.302C19.9917 10.302 19.7859 10.3283 19.601 10.4155C19.5339 10.4486 19.4704 10.4869 19.4035 10.525L19.4639 10.3151L19.4308 10.2798C19.0387 10.3562 18.9509 10.3664 18.5887 10.4155L18.5583 10.4349C18.5163 10.7703 18.4789 11.0225 18.323 11.6818C18.2637 11.9248 18.202 12.1702 18.1402 12.4126L18.1569 12.4434C18.5281 12.4246 18.6408 12.4246 18.9634 12.4297L18.9895 12.4024C19.0305 12.2004 19.0358 12.1531 19.1266 11.744C19.1692 11.5501 19.2582 11.124 19.3021 10.9723C19.3827 10.9363 19.4622 10.901 19.5381 10.901C19.7189 10.901 19.6969 11.0527 19.6899 11.1132C19.6822 11.2147 19.6163 11.5462 19.5488 11.8308L19.5037 12.0145C19.4722 12.1502 19.4378 12.282 19.4064 12.4165L19.42 12.4434C19.7859 12.4246 19.8975 12.4246 20.2099 12.4297L20.2466 12.4024C20.3031 12.0869 20.3197 12.0025 20.4199 11.5433L20.4703 11.3322C20.5682 10.9193 20.6174 10.7099 20.5433 10.5393C20.4649 10.3481 20.277 10.302 20.1044 10.302ZM21.8805 10.7344C21.686 10.7703 21.562 10.7942 21.4387 10.8097C21.3165 10.8286 21.1973 10.8456 21.0094 10.8708L20.9945 10.8838L20.9808 10.8941C20.9612 11.0288 20.9476 11.1452 20.9216 11.282C20.8996 11.4235 20.8658 11.5843 20.8106 11.8153C20.768 11.9921 20.746 12.0538 20.7217 12.116C20.698 12.1782 20.6719 12.2386 20.6239 12.4126L20.6352 12.4286L20.6446 12.4434C20.8202 12.4353 20.9351 12.4296 21.0532 12.4286C21.1712 12.4245 21.2934 12.4286 21.4826 12.4296L21.4991 12.4167L21.5169 12.4023C21.5442 12.2455 21.5483 12.2033 21.565 12.1268C21.5815 12.0447 21.6101 11.9311 21.6801 11.6276C21.7132 11.4851 21.7501 11.343 21.7844 11.1976C21.82 11.0527 21.8574 10.91 21.8929 10.7675L21.8876 10.7503L21.8805 10.7344ZM21.8846 10.1514C21.7079 10.0511 21.3977 10.0829 21.189 10.2215C20.9809 10.3573 20.9572 10.5501 21.1333 10.6517C21.307 10.7492 21.6183 10.7202 21.8252 10.5804C22.0329 10.4417 22.0589 10.2507 21.8846 10.1514ZM22.9533 12.4748C23.3108 12.4748 23.6773 12.38 23.9531 12.0988C24.1653 11.8707 24.2627 11.5313 24.2964 11.3916C24.4061 10.9283 24.3207 10.7121 24.2133 10.5804C24.0503 10.3796 23.7621 10.3152 23.4632 10.3152C23.2835 10.3152 22.8554 10.3322 22.5209 10.6288C22.2808 10.8428 22.1698 11.1331 22.1028 11.4114C22.0353 11.695 21.9576 12.2055 22.4456 12.3955C22.5962 12.4577 22.8133 12.4748 22.9533 12.4748ZM22.9254 11.4326C23.0078 11.0818 23.1051 10.7874 23.3535 10.7874C23.5481 10.7874 23.5622 11.0065 23.4757 11.3584C23.4602 11.4365 23.3891 11.727 23.293 11.8507C23.2259 11.9419 23.1465 11.9973 23.0588 11.9973C23.0327 11.9973 22.8774 11.9973 22.8749 11.7755C22.8737 11.6659 22.897 11.5541 22.9254 11.4326ZM25.1901 12.4297L25.218 12.4024C25.2576 12.2004 25.2642 12.153 25.3519 11.7441C25.3958 11.5502 25.4866 11.124 25.5292 10.9723C25.61 10.9362 25.6882 10.9009 25.7665 10.9009C25.9461 10.9009 25.9242 11.0526 25.9171 11.1131C25.9106 11.2147 25.8447 11.5461 25.7759 11.8307L25.7333 12.0144C25.7006 12.1502 25.6651 12.2819 25.6337 12.4166L25.6473 12.4434C26.0144 12.4246 26.1217 12.4246 26.436 12.4297L26.4739 12.4024C26.5291 12.0868 26.5439 12.0024 26.6472 11.5433L26.6964 11.3321C26.7947 10.9192 26.8445 10.7099 26.7717 10.5393C26.691 10.3482 26.5019 10.302 26.3317 10.302C26.2189 10.302 26.012 10.3282 25.8281 10.4155C25.7624 10.4486 25.6965 10.4868 25.6318 10.525L25.6882 10.3152L25.658 10.2797C25.266 10.3562 25.1764 10.3664 24.8146 10.4155L24.7869 10.4349C24.743 10.7704 24.7073 11.0224 24.5514 11.6819C24.492 11.9249 24.4304 12.1702 24.3688 12.4126L24.3853 12.4434C24.7571 12.4246 24.8681 12.4246 25.1901 12.4297ZM27.8871 12.4434C27.9102 12.335 28.0472 11.6928 28.0485 11.6928C28.0485 11.6928 28.1652 11.2215 28.1723 11.2044C28.1723 11.2044 28.2091 11.1554 28.2458 11.1359H28.2999C28.8098 11.1359 29.3856 11.1359 29.837 10.8166C30.1441 10.5975 30.354 10.2741 30.4477 9.88095C30.472 9.78457 30.4899 9.66993 30.4899 9.5553C30.4899 9.40474 30.4585 9.25579 30.3677 9.1394C30.1375 8.82967 29.6792 8.82398 29.1502 8.82164C29.1485 8.82164 28.8893 8.82398 28.8893 8.82398C28.2121 8.83201 27.9405 8.82967 27.8289 8.81653C27.8195 8.86399 27.8018 8.94839 27.8018 8.94839C27.8018 8.94839 27.5592 10.0299 27.5592 10.0317C27.5592 10.0317 26.9786 12.3311 26.9513 12.4394C27.5426 12.4326 27.7851 12.4326 27.8871 12.4434ZM28.3366 10.5222C28.3366 10.5222 28.5945 9.44286 28.5933 9.44694L28.6017 9.3916L28.6053 9.3494L28.7084 9.35962C28.7084 9.35962 29.2403 9.40357 29.2528 9.40474C29.4627 9.48287 29.5493 9.68425 29.4889 9.9471C29.4337 10.1873 29.2718 10.3893 29.0636 10.4868C28.8922 10.5695 28.6823 10.5764 28.4659 10.5764H28.326L28.3366 10.5222ZM29.9425 11.4526C29.8744 11.7321 29.796 12.2426 30.2817 12.4246C30.4365 12.4879 30.5753 12.5068 30.7163 12.4999C30.8652 12.4922 31.0032 12.4203 31.1311 12.3169C31.1195 12.3594 31.108 12.4019 31.0964 12.4446L31.1185 12.4719C31.4678 12.4577 31.5762 12.4577 31.9546 12.4605L31.9889 12.4354C32.0442 12.1229 32.0963 11.8194 32.2399 11.2216C32.3099 10.9352 32.3797 10.6516 32.4515 10.3664L32.4403 10.335C32.0495 10.4047 31.9451 10.4196 31.5692 10.4708L31.5406 10.4932C31.5369 10.5222 31.5329 10.5501 31.5293 10.578C31.4708 10.4872 31.3861 10.4096 31.2554 10.3613C31.0882 10.2981 30.6957 10.3795 30.3582 10.6751C30.1211 10.8861 30.0072 11.1753 29.9425 11.4526ZM30.7632 11.4697C30.8469 11.1252 30.943 10.8337 31.1919 10.8337C31.3494 10.8337 31.4323 10.9735 31.4154 11.2118C31.402 11.2712 31.3876 11.3339 31.3705 11.4047C31.3456 11.5071 31.3185 11.6085 31.2923 11.7102C31.2656 11.7797 31.2344 11.8453 31.2003 11.8889C31.1362 11.9763 30.9838 12.0304 30.8961 12.0304C30.8712 12.0304 30.7175 12.0304 30.7122 11.8125C30.711 11.704 30.7342 11.5923 30.7632 11.4697ZM35.0489 10.3322L35.0187 10.2991C34.6321 10.3744 34.5621 10.3864 34.2068 10.4325L34.1807 10.4577C34.1795 10.4617 34.1784 10.468 34.1766 10.4737L34.1754 10.468C33.911 11.0549 33.9187 10.9283 33.7034 11.3904C33.7022 11.3693 33.7022 11.3562 33.701 11.3338L33.6471 10.3322L33.6133 10.2991C33.2082 10.3744 33.1987 10.3864 32.8246 10.4325L32.7954 10.4577C32.7913 10.4696 32.7913 10.4828 32.7889 10.4971L32.7913 10.5022C32.8381 10.732 32.8269 10.6808 32.8738 11.0435C32.8956 11.2215 32.9248 11.4006 32.9466 11.5764C32.9835 11.8707 33.0042 12.0155 33.0493 12.4646C32.7967 12.8656 32.7368 13.0173 32.4936 13.3692L32.4953 13.3727L32.3241 13.6333C32.3045 13.6607 32.2867 13.6795 32.2618 13.6876C32.2345 13.7006 32.199 13.7029 32.1496 13.7029H32.0548L31.9137 14.1541L32.3975 14.1622C32.6816 14.161 32.8601 14.0332 32.9562 13.8615L33.2604 13.36H33.2556L33.2876 13.3247C33.4923 12.9009 35.0489 10.3322 35.0489 10.3322ZM29.9425 16.2585H29.7373L30.4969 13.8416H30.7489L30.8289 13.5926L30.8367 13.8695C30.8273 14.0406 30.9672 14.1923 31.3349 14.1672H31.7602L31.9065 13.7018H31.7465C31.6545 13.7018 31.6118 13.6795 31.6171 13.6316L31.6094 13.3499H30.822V13.3513C30.5674 13.3565 29.8071 13.3749 29.6532 13.4143C29.4669 13.4604 29.2706 13.5962 29.2706 13.5962L29.3477 13.347H28.6111L28.4576 13.8416L27.6878 16.2955H27.5384L27.3919 16.7575H28.859L28.8098 16.9116H29.5328L29.5807 16.7575H29.7836L29.9425 16.2585ZM29.3406 14.3327C29.2226 14.3641 29.0031 14.4593 29.0031 14.4593L29.1983 13.8416H29.7836L29.6424 14.2916C29.6424 14.2916 29.4616 14.3019 29.3406 14.3327ZM29.3518 15.2151C29.3518 15.2151 29.168 15.2373 29.047 15.2636C28.9278 15.2984 28.7043 15.4079 28.7043 15.4079L28.9059 14.7651H29.4942L29.3518 15.2151ZM29.0239 16.2642H28.4368L28.607 15.7217H29.1923L29.0239 16.2642ZM30.4377 14.7651H31.2839L31.1623 15.1439H30.3048L30.1761 15.558H30.9263L30.3583 16.3275C30.3185 16.384 30.2828 16.404 30.2432 16.4199C30.2034 16.4393 30.1512 16.4621 30.0908 16.4621H29.8826L29.7396 16.9157H30.284C30.567 16.9157 30.7341 16.7918 30.8576 16.6293L31.2471 16.1164L31.3308 16.6372C31.3485 16.7347 31.4214 16.7918 31.4707 16.814C31.5252 16.8403 31.5816 16.8854 31.6611 16.8922C31.7464 16.8957 31.8081 16.8984 31.8491 16.8984H32.1165L32.2772 16.3908H32.1717C32.1111 16.3908 32.0068 16.3811 31.989 16.3628C31.9713 16.3406 31.9713 16.3064 31.9617 16.2544L31.8768 15.7325H31.5293L31.6818 15.558H32.5375L32.6691 15.1439H31.8768L32.0003 14.7651H32.7901L32.9366 14.2979H30.5817L30.4377 14.7651ZM23.2906 16.3697L23.4881 15.7377H24.2999L24.4482 15.2676H23.6357L23.7597 14.8786H24.5537L24.7008 14.4234H22.7142L22.5701 14.8786H23.0215L22.9011 15.2676H22.4485L22.2986 15.7457H22.7497L22.4865 16.5819C22.451 16.6926 22.5032 16.7348 22.5363 16.7862C22.5701 16.8363 22.6045 16.8694 22.6816 16.8883C22.7611 16.9053 22.8156 16.9156 22.8897 16.9156H23.8048L23.9679 16.3948L23.5622 16.4484C23.4839 16.4484 23.267 16.4394 23.2906 16.3697ZM23.3837 13.3441L23.178 13.7017C23.134 13.7799 23.0944 13.8284 23.0587 13.8507C23.0273 13.8695 22.965 13.8774 22.8749 13.8774H22.7675L22.6241 14.3349H22.9805C23.1519 14.3349 23.2836 14.2745 23.3464 14.2442C23.414 14.2095 23.4317 14.2294 23.4839 14.1809L23.6043 14.0805H24.7174L24.8651 13.6042H24.0504L24.1926 13.3441H23.3837ZM25.027 16.3789C25.008 16.3526 25.0217 16.3063 25.0507 16.2099L25.3549 15.2413H26.4372C26.5949 15.2391 26.7088 15.2374 26.7829 15.2323C26.8624 15.2242 26.949 15.1969 27.0432 15.1478C27.1405 15.0964 27.1903 15.0423 27.2324 14.9801C27.2793 14.918 27.3546 14.7822 27.4193 14.5728L27.8017 13.347L26.6786 13.3533C26.6786 13.3533 26.3327 13.4023 26.1805 13.4565C26.0268 13.517 25.8073 13.6858 25.8073 13.6858L25.9087 13.3498H25.215L24.2437 16.4484C24.2092 16.5687 24.1861 16.6561 24.1808 16.7085C24.179 16.765 24.2549 16.8209 24.3041 16.8631C24.3622 16.9053 24.4482 16.8985 24.5306 16.9053C24.6173 16.9116 24.7405 16.9156 24.9107 16.9156H25.4439L25.6075 16.384L25.1302 16.4274C25.0792 16.4274 25.0423 16.4011 25.027 16.3789ZM25.5512 14.5871H26.688L26.6157 14.805C26.6056 14.8101 26.5813 14.7942 26.4656 14.8073H25.4812L25.5512 14.5871ZM25.7789 13.8563H26.9253L26.8428 14.1188C26.8428 14.1188 26.3025 14.1137 26.216 14.129C25.8353 14.1924 25.6129 14.388 25.6129 14.388L25.7789 13.8563ZM26.6412 15.5346C26.6318 15.5671 26.6169 15.587 26.5961 15.6019C26.573 15.6162 26.5357 15.6213 26.4799 15.6213H26.318L26.3275 15.356H25.6538L25.6265 16.6532C25.6254 16.7468 25.6348 16.801 25.706 16.8443C25.7772 16.8985 25.9966 16.9054 26.2919 16.9054H26.714L26.8665 16.4198L26.4989 16.4392L26.3767 16.4461C26.36 16.4392 26.3441 16.433 26.3263 16.4159C26.3108 16.4011 26.2847 16.4102 26.289 16.3166L26.2919 15.9841L26.6773 15.9687C26.8854 15.9687 26.9744 15.9036 27.0503 15.8415C27.1227 15.7821 27.1464 15.7138 27.1737 15.6213L27.2384 15.3269H26.7087L26.6412 15.5346Z" fill="#FEFEFE"/>
</g>
<defs>
<clipPath id="clip0_4101_43338">
<rect width="25" height="15" fill="white" transform="translate(12 5)"/>
</clipPath>
</defs>
</svg>
