<svg width="48" height="24" viewBox="0 0 48 24" fill="none" xmlns="http://www.w3.org/2000/svg">
<rect width="48" height="24" fill="#F2F2F4"/>
<path d="M20.1484 15.5718L21.5576 7.30273H23.8114L22.4013 15.5718H20.1484Z" fill="#0E4595"/>
<path d="M30.5443 7.47816C30.0978 7.31063 29.3981 7.13086 28.5243 7.13086C26.2972 7.13086 24.7285 8.25237 24.7151 9.85973C24.7025 11.0479 25.835 11.7107 26.69 12.1063C27.5673 12.5116 27.8622 12.7701 27.858 13.132C27.8524 13.6863 27.1574 13.9394 26.5095 13.9394C25.6075 13.9394 25.1282 13.8141 24.388 13.5055L24.0975 13.374L23.7812 15.2251C24.3077 15.456 25.2811 15.6559 26.2919 15.6663C28.6612 15.6663 30.1992 14.5576 30.2167 12.8411C30.2251 11.9004 29.6246 11.1846 28.3243 10.5945C27.5365 10.2119 27.054 9.95667 27.0592 9.56933C27.0592 9.22563 27.4675 8.8581 28.35 8.8581C29.0869 8.84665 29.6209 9.00737 30.0369 9.1749L30.2388 9.27032L30.5443 7.47816Z" fill="#0E4595"/>
<path d="M36.3472 7.30273H34.6056C34.0661 7.30273 33.6623 7.44998 33.4254 7.98846L30.0781 15.5664H32.4449C32.4449 15.5664 32.8318 14.5475 32.9193 14.3238C33.1779 14.3238 35.4772 14.3273 35.8058 14.3273C35.8732 14.6168 36.08 15.5664 36.08 15.5664H38.1714L36.3472 7.30273ZM33.584 12.6422C33.7704 12.1658 34.482 10.3307 34.482 10.3307C34.4687 10.3527 34.667 9.85192 34.7808 9.54145L34.9331 10.2544C34.9331 10.2544 35.3647 12.2282 35.4549 12.6421H33.584V12.6422Z" fill="#0E4595"/>
<path d="M10.3374 7.30273L10.3086 7.47475C11.1996 7.69042 11.9953 8.00259 12.692 8.39091L14.6919 15.5585L17.0766 15.5559L20.6249 7.30273H18.2373L16.0307 12.9416L15.7957 11.7956C15.7847 11.7602 15.7727 11.7247 15.7604 11.6892L14.9934 8.00085C14.857 7.47724 14.4613 7.32098 13.9718 7.30273H10.3374Z" fill="#0E4595"/>
</svg>
